#!OML:ASF I:\Actors\actors\Patient Classification 2\Patient 1\Session 1\actor1.ASF
:FULLY-SPECIFIED
:DEGREES
232
root -0.28696 18.4623 6.93481 -4.8322 -3.50481 -3.79039
lowerback 5.59779 0.186878 -2.16189
upperback -1.01463 0.125948 0.737382
thorax -4.19723 0.124484 1.96553
lowerneck -15.7416 -0.492602 -1.37916
upperneck 10.5393 -2.63424 15.7845
head 6.08096 -0.0992948 5.05355
rclavicle -5.66536e-015 1.39149e-014
rhumerus -51.8381 -18.3526 -46.1108
rradius 55.1528
rwrist -8.1607
rhand -8.88971 -30.877
rfingers 7.12502
rthumb 17.0526 -60.1486
lclavicle -5.66536e-015 1.39149e-014
lhumerus -38.695 -2.30051 85.3343
lradius 50.5673
lwrist 17.494
lhand -6.90862 -20.306
lfingers 7.12502
lthumb 18.9587 8.79006
rfemur 17.6681 -5.30454 13.6765
rtibia -1.74931e-014
rfoot -13.8057 -3.29049
rtoes -17.912
lfemur 3.32621 -4.86443 -13.2797
ltibia 26.1619
lfoot -26.0268 9.17705
ltoes -56.3493
233
root -0.336103 18.4641 6.92826 -4.94934 -3.15015 -3.83087
lowerback 5.5318 0.230016 -1.9747
upperback -0.994598 0.201756 0.82621
thorax -4.14239 0.157853 1.94526
lowerneck -15.6828 -1.26309 -2.09559
upperneck 10.6846 -3.58719 16.0136
head 6.22128 -0.5676 5.15837
rclavicle 7.35503e-015 -1.51076e-014
rhumerus -51.144 -18.6008 -45.3322
rradius 57.0327
rwrist -9.80062
rhand -7.32294 -29.7815
rfingers 7.12502
rthumb 18.5602 -58.9161
lclavicle 7.35503e-015 -1.51076e-014
lhumerus -38.6446 -0.932477 83.0354
lradius 52.1068
lwrist 19.2427
lhand -7.27649 -20.0294
lfingers 7.12502
lthumb 18.6049 9.1009
rfemur 17.8676 -5.6729 13.8174
rtibia -9.85972e-014
rfoot -13.6436 -3.01661
rtoes -18.0937
lfemur 3.38551 -5.18889 -13.1215
ltibia 26.105
lfoot -25.9269 9.33509
ltoes -56.6206
234
root -0.385091 18.4671 6.92283 -5.05863 -2.84474 -3.9698
lowerback 5.41375 0.264425 -1.70608
upperback -0.953999 0.273021 0.942699
thorax -4.03604 0.18677 1.90836
lowerneck -15.4398 -1.98345 -2.71355
upperneck 10.7155 -4.46137 16.1376
head 6.28954 -1.01533 5.2135
rclavicle -1.65488e-014 -3.97569e-016
rhumerus -50.4199 -18.7123 -44.6506
rradius 59.0911
rwrist -11.7166
rhand -5.66236 -29.145
rfingers 7.12502
rthumb 20.1569 -58.1192
lclavicle -1.65488e-014 -3.97569e-016
lhumerus -38.5044 0.353925 80.7429
lradius 53.8912
lwrist 21.2561
lhand -7.74934 -19.4597
lfingers 7.12502
lthumb 18.15 9.71345
rfemur 18.0541 -6.00504 14.0727
rtibia -1.59028e-015
rfoot -13.6606 -2.96581
rtoes -18.4568
lfemur 3.43962 -5.50046 -12.8548
ltibia 26.0684
lfoot -25.8427 9.49796
ltoes -56.8001
235
root -0.436398 18.4691 6.91321 -5.15075 -2.53265 -4.16874
lowerback 5.35827 0.26281 -1.42568
upperback -0.932273 0.29532 1.06072
thorax -3.98216 0.192042 1.87081
lowerneck -15.2004 -2.66475 -3.30732
upperneck 10.8655 -5.31417 16.2876
head 6.40088 -1.44398 5.27689
rclavicle -4.12478e-015 1.03368e-014
rhumerus -49.5855 -18.587 -44.2013
rradius 61.2507
rwrist -13.407
rhand -5.63959 -29.8014
rfingers 7.12502
rthumb 20.1788 -58.7734
lclavicle -4.12478e-015 1.03368e-014
lhumerus -38.1912 1.6943 78.3454
lradius 55.603
lwrist 23.1469
lhand -8.00179 -19.5414
lfingers 7.12502
lthumb 17.9071 9.65416
rfemur 18.2179 -6.35523 14.4024
rtibia 1.27222e-014
rfoot -13.8975 -3.03867
rtoes -17.8511
lfemur 3.45477 -5.71219 -12.4624
ltibia 26.0349
lfoot -25.7213 9.46901
ltoes -56.8959
236
root -0.489179 18.4691 6.90163 -5.28107 -2.2568 -4.34886
lowerback 5.84218 0.309285 -0.961517
upperback -1.23821 0.385796 1.02021
thorax -4.57365 0.231676 1.55889
lowerneck -14.8575 -3.42613 -3.88965
upperneck 11.4327 -6.35992 16.5079
head 6.65667 -1.94432 5.34733
rclavicle 1.19768e-014 -1.47101e-014
rhumerus -49.3256 -18.1857 -43.639
rradius 63.494
rwrist -14.8154
rhand -6.93719 -30.9338
rfingers 7.12502
rthumb 18.9312 -60.0326
lclavicle 1.19768e-014 -1.47101e-014
lhumerus -38.1759 2.73357 75.7487
lradius 57.0559
lwrist 24.6709
lhand -7.77078 -21.6233
lfingers 7.12502
lthumb 18.1294 7.55184
rfemur 18.4131 -6.66608 14.7127
rtibia -2.06736e-014
rfoot -14.0525 -3.00395
rtoes -17.3241
lfemur 3.51975 -5.92867 -12.092
ltibia 26.015
lfoot -25.6494 9.40107
ltoes -56.9404
237
root -0.541367 18.468 6.891 -5.44297 -2.05866 -4.53031
lowerback 6.03518 0.365525 -0.652528
upperback -1.30814 0.48691 1.07922
thorax -4.75707 0.275586 1.43576
lowerneck -14.5936 -4.15027 -4.4914
upperneck 11.9744 -7.33684 16.6131
head 6.91498 -2.4196 5.38614
rclavicle -7.45443e-016 -4.77083e-015
rhumerus -48.7035 -17.9354 -42.9763
rradius 65.683
rwrist -16.2744
rhand -8.15882 -31.6698
rfingers 7.12502
rthumb 17.756 -60.8792
lclavicle -7.45443e-016 -4.77083e-015
lhumerus -37.71 3.86668 73.3906
lradius 59.3043
lwrist 26.4612
lhand -7.98192 -21.1379
lfingers 7.12502
lthumb 17.9262 8.05592
rfemur 18.6211 -6.90058 15.0331
rtibia -4.6118e-014
rfoot -14.0938 -2.95538
rtoes -17.7329
lfemur 3.64238 -6.19476 -11.7567
ltibia 26.0105
lfoot -25.6455 9.44026
ltoes -57.0158
238
root -0.592765 18.4664 6.87967 -5.58904 -1.91818 -4.71191
lowerback 6.06818 0.399373 -0.434143
upperback -1.27617 0.554045 1.19037
thorax -4.74351 0.304124 1.42134
lowerneck -14.211 -4.78109 -5.13794
upperneck 12.4163 -8.1722 16.7411
head 7.11449 -2.83854 5.45313
rclavicle -1.07841e-014 1.51076e-014
rhumerus -47.8148 -17.6844 -42.3158
rradius 67.8453
rwrist -17.8421
rhand -8.53412 -31.9565
rfingers 7.12502
rthumb 17.3948 -61.1981
lclavicle -1.07841e-014 1.51076e-014
lhumerus -36.9308 5.15752 71.123
lradius 61.5537
lwrist 28.396
lhand -8.41564 -20.9784
lfingers 7.12502
lthumb 17.5089 8.2531
rfemur 18.7858 -7.08379 15.3699
rtibia 3.02153e-014
rfoot -14.1353 -2.91731
rtoes -17.9615
lfemur 3.7393 -6.32277 -11.3944
ltibia 26.0057
lfoot -25.5659 9.4812
ltoes -57.2346
239
root -0.644053 18.4657 6.8667 -5.69648 -1.7783 -4.867
lowerback 6.09037 0.38568 -0.291241
upperback -1.26773 0.55176 1.29476
thorax -4.74696 0.300497 1.44942
lowerneck -13.7241 -5.36528 -5.83604
upperneck 12.9159 -8.96288 16.9267
head 7.32115 -3.23779 5.55505
rclavicle 1.04362e-015 -1.03368e-014
rhumerus -46.7255 -17.441 -41.6455
rradius 69.8715
rwrist -19.261
rhand -8.05664 -32.1662
rfingers 7.12502
rthumb 17.8543 -61.3666
lclavicle 1.04362e-015 -1.03368e-014
lhumerus -36.0363 6.32487 68.866
lradius 63.9127
lwrist 30.52
lhand -8.96665 -20.9548
lfingers 7.12502
lthumb 16.9785 8.32316
rfemur 18.8961 -7.269 15.6846
rtibia 4.13472e-014
rfoot -14.2001 -2.8645
rtoes -17.757
lfemur 3.77288 -6.34717 -11.0271
ltibia 26.0095
lfoot -25.4725 9.46519
ltoes -57.467
240
root -0.693028 18.4679 6.854 -5.73368 -1.65192 -5.01477
lowerback 6.02029 0.372756 -0.166825
upperback -1.25097 0.548156 1.39259
thorax -4.68956 0.296397 1.48155
lowerneck -13.3188 -5.99162 -6.46092
upperneck 13.5868 -9.83355 16.9467
head 7.60292 -3.67433 5.57834
rclavicle -1.81888e-014 9.14409e-015
rhumerus -45.5428 -17.3073 -40.899
rradius 71.8592
rwrist -20.429
rhand -6.71576 -32.8683
rfingers 7.12502
rthumb 19.1442 -61.946
lclavicle -1.81888e-014 9.14409e-015
lhumerus -34.9607 7.1944 66.6902
lradius 66.4187
lwrist 32.8673
lhand -9.59771 -20.8985
lfingers 7.12502
lthumb 16.371 8.43058
rfemur 18.9255 -7.44403 15.9906
rtibia 1.90833e-014
rfoot -14.2853 -2.83541
rtoes -17.7596
lfemur 3.73688 -6.52235 -10.7141
ltibia 26.0254
lfoot -25.5314 9.51099
ltoes -57.5231
241
root -0.737777 18.4693 6.84467 -5.78018 -1.62413 -5.20986
lowerback 5.91512 0.375598 0.0471606
upperback -1.2308 0.571875 1.49354
thorax -4.60865 0.303403 1.46393
lowerneck -12.8729 -6.67625 -7.13779
upperneck 14.406 -10.7912 16.8669
head 7.94122 -4.16029 5.56523
rclavicle -2.48481e-015 2.50469e-014
rhumerus -44.3454 -17.2007 -40.1095
rradius 73.829
rwrist -21.3979
rhand -7.68906 -33.1986
rfingers 7.12502
rthumb 18.208 -62.3664
lclavicle -2.48481e-015 2.50469e-014
lhumerus -33.7656 7.88721 64.5667
lradius 69.0159
lwrist 35.3518
lhand -10.2589 -20.7482
lfingers 7.12502
lthumb 15.7343 8.63217
rfemur 18.9523 -7.52399 16.3442
rtibia 6.36111e-015
rfoot -14.3815 -2.81145
rtoes -17.6516
lfemur 3.76053 -6.77614 -10.4085
ltibia 26.0308
lfoot -25.6385 9.64964
ltoes -57.4939
